<svg xmlns="http://www.w3.org/2000/svg" xmlns:xlink="http://www.w3.org/1999/xlink" width="500" zoomAndPan="magnify" viewBox="0 0 375 374.999991" height="500" preserveAspectRatio="xMidYMid meet" version="1.0"><defs><g/><clipPath id="0f557c156a"><path d="M 8.660156 79.796875 L 44.609375 79.796875 L 44.609375 114.011719 L 8.660156 114.011719 Z M 8.660156 79.796875 " clip-rule="nonzero"/></clipPath><clipPath id="858c6dfeca"><path d="M 26.605469 79.796875 L 30.84375 92.863281 L 44.554688 92.863281 L 33.460938 100.941406 L 37.699219 114.011719 L 26.605469 105.933594 L 15.515625 114.011719 L 19.75 100.941406 L 8.660156 92.863281 L 22.371094 92.863281 Z M 26.605469 79.796875 " clip-rule="nonzero"/></clipPath><clipPath id="1baaea5381"><path d="M 0.660156 0.796875 L 36.609375 0.796875 L 36.609375 35.011719 L 0.660156 35.011719 Z M 0.660156 0.796875 " clip-rule="nonzero"/></clipPath><clipPath id="469e7d96fe"><path d="M 18.605469 0.796875 L 22.84375 13.863281 L 36.554688 13.863281 L 25.460938 21.941406 L 29.699219 35.011719 L 18.605469 26.933594 L 7.515625 35.011719 L 11.75 21.941406 L 0.660156 13.863281 L 14.371094 13.863281 Z M 18.605469 0.796875 " clip-rule="nonzero"/></clipPath><clipPath id="1601a9a4af"><rect x="0" width="37" y="0" height="36"/></clipPath><clipPath id="7c7875213a"><path d="M 66.714844 114.011719 L 102.667969 114.011719 L 102.667969 148.222656 L 66.714844 148.222656 Z M 66.714844 114.011719 " clip-rule="nonzero"/></clipPath><clipPath id="39400c431d"><path d="M 84.664062 114.011719 L 88.902344 127.078125 L 102.613281 127.078125 L 91.519531 135.15625 L 95.757812 148.222656 L 84.664062 140.148438 L 73.570312 148.222656 L 77.808594 135.15625 L 66.714844 127.078125 L 80.425781 127.078125 Z M 84.664062 114.011719 " clip-rule="nonzero"/></clipPath><clipPath id="1fb6829411"><path d="M 0.714844 0.0117188 L 36.667969 0.0117188 L 36.667969 34.222656 L 0.714844 34.222656 Z M 0.714844 0.0117188 " clip-rule="nonzero"/></clipPath><clipPath id="0f2ace146b"><path d="M 18.664062 0.0117188 L 22.902344 13.078125 L 36.613281 13.078125 L 25.519531 21.15625 L 29.757812 34.222656 L 18.664062 26.148438 L 7.570312 34.222656 L 11.808594 21.15625 L 0.714844 13.078125 L 14.425781 13.078125 Z M 18.664062 0.0117188 " clip-rule="nonzero"/></clipPath><clipPath id="98bfde5841"><rect x="0" width="37" y="0" height="35"/></clipPath><clipPath id="b27ba1a67e"><path d="M 8.660156 144.988281 L 44.609375 144.988281 L 44.609375 179.203125 L 8.660156 179.203125 Z M 8.660156 144.988281 " clip-rule="nonzero"/></clipPath><clipPath id="788ec076ef"><path d="M 26.605469 144.988281 L 30.84375 158.058594 L 44.554688 158.058594 L 33.460938 166.132812 L 37.699219 179.203125 L 26.605469 171.125 L 15.515625 179.203125 L 19.75 166.132812 L 8.660156 158.058594 L 22.371094 158.058594 Z M 26.605469 144.988281 " clip-rule="nonzero"/></clipPath><clipPath id="f1658adec0"><path d="M 0.660156 0.988281 L 36.609375 0.988281 L 36.609375 35.203125 L 0.660156 35.203125 Z M 0.660156 0.988281 " clip-rule="nonzero"/></clipPath><clipPath id="4d8095fcb0"><path d="M 18.605469 0.988281 L 22.84375 14.058594 L 36.554688 14.058594 L 25.460938 22.132812 L 29.699219 35.203125 L 18.605469 27.125 L 7.515625 35.203125 L 11.75 22.132812 L 0.660156 14.058594 L 14.371094 14.058594 Z M 18.605469 0.988281 " clip-rule="nonzero"/></clipPath><clipPath id="3876612607"><rect x="0" width="37" y="0" height="36"/></clipPath><clipPath id="03db188332"><path d="M 124.773438 144.988281 L 160.722656 144.988281 L 160.722656 179.203125 L 124.773438 179.203125 Z M 124.773438 144.988281 " clip-rule="nonzero"/></clipPath><clipPath id="f7b16fe29e"><path d="M 142.722656 144.988281 L 146.957031 158.058594 L 160.667969 158.058594 L 149.578125 166.132812 L 153.8125 179.203125 L 142.722656 171.125 L 131.628906 179.203125 L 135.867188 166.132812 L 124.773438 158.058594 L 138.484375 158.058594 Z M 142.722656 144.988281 " clip-rule="nonzero"/></clipPath><clipPath id="d98f3cad19"><path d="M 0.773438 0.988281 L 36.722656 0.988281 L 36.722656 35.203125 L 0.773438 35.203125 Z M 0.773438 0.988281 " clip-rule="nonzero"/></clipPath><clipPath id="732c0557ee"><path d="M 18.722656 0.988281 L 22.957031 14.058594 L 36.667969 14.058594 L 25.578125 22.132812 L 29.8125 35.203125 L 18.722656 27.125 L 7.628906 35.203125 L 11.867188 22.132812 L 0.773438 14.058594 L 14.484375 14.058594 Z M 18.722656 0.988281 " clip-rule="nonzero"/></clipPath><clipPath id="48ee4f3c0a"><rect x="0" width="37" y="0" height="36"/></clipPath><clipPath id="d9fcf7331d"><path d="M 124.773438 79.796875 L 160.722656 79.796875 L 160.722656 114.011719 L 124.773438 114.011719 Z M 124.773438 79.796875 " clip-rule="nonzero"/></clipPath><clipPath id="d25dc53438"><path d="M 142.722656 79.796875 L 146.957031 92.863281 L 160.667969 92.863281 L 149.578125 100.941406 L 153.8125 114.011719 L 142.722656 105.933594 L 131.628906 114.011719 L 135.867188 100.941406 L 124.773438 92.863281 L 138.484375 92.863281 Z M 142.722656 79.796875 " clip-rule="nonzero"/></clipPath><clipPath id="8252595782"><path d="M 0.773438 0.796875 L 36.722656 0.796875 L 36.722656 35.011719 L 0.773438 35.011719 Z M 0.773438 0.796875 " clip-rule="nonzero"/></clipPath><clipPath id="9ee7ce1f7f"><path d="M 18.722656 0.796875 L 22.957031 13.863281 L 36.667969 13.863281 L 25.578125 21.941406 L 29.8125 35.011719 L 18.722656 26.933594 L 7.628906 35.011719 L 11.867188 21.941406 L 0.773438 13.863281 L 14.484375 13.863281 Z M 18.722656 0.796875 " clip-rule="nonzero"/></clipPath><clipPath id="d15ea14a94"><rect x="0" width="37" y="0" height="36"/></clipPath><clipPath id="1a1b5dfde3"><path d="M 218.488281 90.996094 L 252.238281 90.996094 L 252.238281 124.746094 L 218.488281 124.746094 Z M 218.488281 90.996094 " clip-rule="nonzero"/></clipPath></defs><g clip-path="url(#0f557c156a)"><g clip-path="url(#858c6dfeca)"><g transform="matrix(1, 0, 0, 1, 8, 79)"><g clip-path="url(#1601a9a4af)"><g clip-path="url(#1baaea5381)"><g clip-path="url(#469e7d96fe)"><path fill="#88cfdf" d="M 0.660156 0.796875 L 36.609375 0.796875 L 36.609375 35.011719 L 0.660156 35.011719 Z M 0.660156 0.796875 " fill-opacity="1" fill-rule="nonzero"/></g></g></g></g></g></g><g clip-path="url(#7c7875213a)"><g clip-path="url(#39400c431d)"><g transform="matrix(1, 0, 0, 1, 66, 114)"><g clip-path="url(#98bfde5841)"><g clip-path="url(#1fb6829411)"><g clip-path="url(#0f2ace146b)"><path fill="#88cfdf" d="M 0.714844 0.0117188 L 36.667969 0.0117188 L 36.667969 34.222656 L 0.714844 34.222656 Z M 0.714844 0.0117188 " fill-opacity="1" fill-rule="nonzero"/></g></g></g></g></g></g><g clip-path="url(#b27ba1a67e)"><g clip-path="url(#788ec076ef)"><g transform="matrix(1, 0, 0, 1, 8, 144)"><g clip-path="url(#3876612607)"><g clip-path="url(#f1658adec0)"><g clip-path="url(#4d8095fcb0)"><path fill="#88cfdf" d="M 0.660156 0.988281 L 36.609375 0.988281 L 36.609375 35.203125 L 0.660156 35.203125 Z M 0.660156 0.988281 " fill-opacity="1" fill-rule="nonzero"/></g></g></g></g></g></g><g clip-path="url(#03db188332)"><g clip-path="url(#f7b16fe29e)"><g transform="matrix(1, 0, 0, 1, 124, 144)"><g clip-path="url(#48ee4f3c0a)"><g clip-path="url(#d98f3cad19)"><g clip-path="url(#732c0557ee)"><path fill="#88cfdf" d="M 0.773438 0.988281 L 36.722656 0.988281 L 36.722656 35.203125 L 0.773438 35.203125 Z M 0.773438 0.988281 " fill-opacity="1" fill-rule="nonzero"/></g></g></g></g></g></g><g clip-path="url(#d9fcf7331d)"><g clip-path="url(#d25dc53438)"><g transform="matrix(1, 0, 0, 1, 124, 79)"><g clip-path="url(#d15ea14a94)"><g clip-path="url(#8252595782)"><g clip-path="url(#9ee7ce1f7f)"><path fill="#88cfdf" d="M 0.773438 0.796875 L 36.722656 0.796875 L 36.722656 35.011719 L 0.773438 35.011719 Z M 0.773438 0.796875 " fill-opacity="1" fill-rule="nonzero"/></g></g></g></g></g></g><path fill="#d4463d" d="M 233.503906 53.625 L 234.054688 53.625 C 234.441406 53.625 234.824219 53.625 235.207031 53.625 C 235.785156 53.625 236.359375 53.621094 236.9375 53.617188 C 239.992188 53.609375 242.941406 53.855469 245.949219 54.378906 L 246.300781 54.441406 C 249.753906 55.039062 253.203125 55.910156 256.425781 57.308594 C 256.875 57.5 257.328125 57.675781 257.789062 57.835938 C 258.445312 58.074219 259.089844 58.332031 259.726562 58.613281 L 259.726562 58.921875 L 260.121094 58.964844 C 260.742188 59.097656 261.242188 59.351562 261.789062 59.660156 L 262.101562 59.832031 C 262.394531 59.992188 262.6875 60.15625 262.980469 60.316406 L 263.367188 60.527344 C 264.433594 61.113281 265.488281 61.726562 266.546875 62.332031 L 266.546875 62.644531 L 267.476562 62.953125 L 267.476562 63.261719 L 268.40625 63.574219 L 268.40625 63.882812 L 268.742188 64.003906 C 269.207031 64.203125 269.589844 64.445312 270.003906 64.734375 L 270.421875 65.019531 L 270.730469 65.277344 L 270.730469 65.585938 L 271.050781 65.683594 C 271.660156 65.96875 272.101562 66.371094 272.601562 66.816406 L 272.914062 67.09375 C 273.21875 67.363281 273.527344 67.640625 273.832031 67.914062 L 274.082031 68.132812 C 275.078125 69.019531 276.035156 69.945312 276.980469 70.886719 L 277.289062 71.195312 C 279.171875 73.085938 279.171875 73.085938 279.566406 74.113281 L 279.875 74.269531 L 280.1875 74.421875 C 280.292969 74.679688 280.398438 74.9375 280.496094 75.199219 L 280.960938 75.351562 C 281.300781 75.808594 281.300781 75.808594 281.582031 76.28125 L 281.582031 76.59375 L 281.890625 76.59375 C 282.101562 76.867188 282.292969 77.15625 282.484375 77.445312 L 282.816406 77.957031 L 283.132812 78.453125 L 283.386719 78.839844 C 283.566406 79.121094 283.738281 79.40625 283.90625 79.691406 L 283.90625 80.003906 L 284.214844 80.003906 C 284.699219 80.804688 284.699219 80.804688 284.835938 81.085938 L 284.835938 81.554688 L 285.148438 81.554688 C 285.441406 82.089844 285.734375 82.625 286.027344 83.160156 L 286.277344 83.613281 C 288.140625 87.023438 289.546875 90.566406 290.726562 94.261719 L 290.910156 94.835938 C 291.207031 95.769531 291.453125 96.714844 291.65625 97.671875 L 291.761719 98.15625 C 292.640625 102.3125 293.175781 106.441406 293.0625 110.699219 C 293.050781 111.152344 293.050781 111.605469 293.046875 112.054688 C 292.964844 118.949219 290.359375 125.699219 287.625 131.929688 L 287.449219 132.335938 C 286.433594 134.660156 285.363281 136.953125 284.214844 139.210938 L 283.90625 139.210938 L 283.871094 139.515625 C 283.703125 140.183594 283.382812 140.75 283.054688 141.355469 L 282.84375 141.746094 C 282.234375 142.882812 281.609375 144.007812 280.96875 145.128906 C 280.816406 145.398438 280.664062 145.667969 280.507812 145.941406 C 279.304688 148.066406 278.039062 150.15625 276.753906 152.234375 C 276.558594 152.550781 276.359375 152.871094 276.164062 153.191406 C 275.550781 154.199219 274.921875 155.195312 274.277344 156.1875 C 273.957031 156.679688 273.957031 156.679688 273.675781 157.191406 L 273.367188 157.191406 L 273.3125 157.46875 C 273.203125 157.835938 273.0625 158.070312 272.839844 158.382812 L 272.613281 158.703125 L 272.378906 159.035156 C 271.875 159.742188 271.410156 160.425781 271.042969 161.222656 L 270.730469 161.222656 L 270.613281 161.636719 C 270.417969 162.160156 270.195312 162.515625 269.859375 162.957031 L 269.523438 163.40625 L 269.183594 163.859375 C 268.550781 164.710938 267.933594 165.566406 267.351562 166.453125 C 266.785156 167.3125 266.183594 168.140625 265.566406 168.960938 C 265.230469 169.414062 264.914062 169.847656 264.6875 170.367188 L 264.375 170.367188 L 264.222656 170.988281 L 263.910156 170.988281 L 263.808594 171.304688 C 263.539062 171.90625 263.164062 172.390625 262.769531 172.914062 C 262.617188 173.117188 262.46875 173.316406 262.320312 173.515625 L 262.101562 173.804688 C 261.90625 174.074219 261.730469 174.347656 261.550781 174.625 L 261.277344 175.019531 L 260.964844 175.019531 L 260.929688 175.277344 C 260.769531 175.761719 260.496094 176.054688 260.164062 176.441406 C 259.625 177.082031 259.136719 177.726562 258.6875 178.433594 C 258.476562 178.753906 258.269531 179.0625 258.023438 179.359375 L 257.710938 179.359375 L 257.585938 179.703125 C 257.402344 180.132812 257.199219 180.429688 256.90625 180.792969 L 256.613281 181.160156 L 256.316406 181.527344 C 256.144531 181.746094 255.972656 181.964844 255.804688 182.1875 L 255.53125 182.535156 C 255.25 182.898438 254.96875 183.265625 254.691406 183.628906 C 253.996094 184.535156 253.292969 185.4375 252.582031 186.335938 C 252.078125 186.976562 251.585938 187.621094 251.097656 188.273438 L 250.890625 188.503906 L 250.582031 188.503906 L 250.484375 188.824219 C 250.207031 189.417969 249.816406 189.847656 249.378906 190.332031 C 249.210938 190.527344 249.039062 190.722656 248.871094 190.917969 L 248.628906 191.195312 C 248.300781 191.578125 248.003906 191.976562 247.710938 192.382812 C 247.195312 193.070312 246.632812 193.726562 246.085938 194.394531 L 245.410156 195.226562 C 244.890625 195.855469 244.367188 196.484375 243.839844 197.105469 C 242.542969 198.605469 242.542969 198.605469 241.339844 200.175781 L 241.125 200.4375 L 240.816406 200.4375 L 240.351562 201.367188 L 240.042969 201.367188 L 239.925781 201.632812 C 239.699219 202.046875 239.425781 202.347656 239.101562 202.695312 C 238.347656 203.519531 237.644531 204.375 236.941406 205.242188 C 236.683594 205.554688 236.425781 205.863281 236.167969 206.171875 C 235.882812 206.121094 235.882812 206.121094 235.546875 206.019531 C 235.238281 205.699219 234.945312 205.363281 234.664062 205.019531 C 234.5 204.820312 234.332031 204.621094 234.167969 204.421875 L 233.917969 204.125 C 233.609375 203.753906 233.285156 203.398438 232.960938 203.042969 C 230.988281 200.867188 230.988281 200.867188 230.742188 200.128906 L 230.277344 199.972656 C 230.015625 199.671875 230.015625 199.671875 229.8125 199.351562 L 229.8125 199.042969 L 229.5 199.042969 C 228.929688 198.542969 228.492188 197.992188 228.105469 197.335938 C 227.914062 196.53125 227.921875 195.753906 227.9375 194.933594 C 227.9375 194.691406 227.9375 194.449219 227.933594 194.210938 C 227.933594 193.554688 227.9375 192.894531 227.945312 192.238281 C 227.949219 191.527344 227.949219 190.820312 227.949219 190.109375 C 227.945312 188.878906 227.953125 187.652344 227.960938 186.421875 C 227.96875 184.644531 227.972656 182.867188 227.976562 181.089844 C 227.980469 178.207031 227.988281 175.324219 228 172.441406 C 228.015625 169.46875 228.023438 166.492188 228.03125 163.519531 L 228.035156 160.917969 C 228.050781 153.734375 228.074219 146.550781 228.105469 139.367188 C 228.355469 139.390625 228.601562 139.417969 228.851562 139.441406 L 229.269531 139.480469 C 229.851562 139.542969 230.421875 139.648438 230.996094 139.753906 C 236.632812 140.597656 242.59375 139.902344 247.886719 137.832031 C 249.132812 137.328125 250.332031 136.75 251.511719 136.113281 L 251.792969 135.960938 C 254.019531 134.765625 255.96875 133.277344 257.867188 131.617188 L 258.265625 131.277344 C 259.03125 130.617188 259.699219 129.914062 260.347656 129.136719 L 260.699219 128.734375 C 262.320312 126.84375 263.671875 124.800781 264.84375 122.605469 C 264.984375 122.34375 265.128906 122.085938 265.273438 121.828125 C 267.628906 117.484375 268.632812 112.222656 268.621094 107.3125 L 268.621094 106.957031 C 268.601562 102.265625 267.613281 97.738281 265.617188 93.488281 L 265.460938 93.15625 C 263.1875 88.335938 259.890625 84.351562 255.695312 81.085938 L 255.386719 80.933594 L 255.386719 80.621094 L 254.921875 80.621094 L 254.921875 80.3125 L 254.601562 80.199219 C 254.066406 79.96875 253.585938 79.671875 253.089844 79.363281 C 247.980469 76.253906 242.195312 74.542969 236.207031 74.378906 C 232.242188 74.332031 228.277344 75.152344 224.542969 76.4375 L 224.046875 76.605469 C 220.5 77.875 216.972656 80.066406 214.210938 82.613281 C 213.878906 82.914062 213.546875 83.210938 213.207031 83.5 C 212.148438 84.425781 211.234375 85.40625 210.386719 86.527344 L 210.125 86.824219 L 209.816406 86.824219 L 209.761719 87.097656 C 209.65625 87.457031 209.527344 87.683594 209.3125 87.984375 L 209.097656 88.292969 L 208.867188 88.613281 L 208.398438 89.292969 C 208.152344 89.644531 207.90625 89.996094 207.65625 90.34375 C 204.871094 94.453125 203.449219 99.914062 202.996094 104.804688 C 202.957031 105.609375 202.957031 106.414062 202.960938 107.222656 C 202.960938 107.457031 202.960938 107.691406 202.960938 107.925781 C 202.960938 108.566406 202.960938 109.203125 202.964844 109.84375 C 202.964844 110.535156 202.964844 111.226562 202.964844 111.917969 C 202.964844 113.121094 202.964844 114.320312 202.96875 115.519531 C 202.972656 117.273438 202.972656 119.027344 202.972656 120.78125 C 202.976562 123.652344 202.976562 126.519531 202.980469 129.390625 L 202.984375 129.910156 L 202.984375 131.992188 C 202.992188 138.175781 202.996094 144.359375 203 150.542969 C 203.007812 160.40625 202.984375 170.269531 202.839844 180.132812 C 198.964844 180.136719 195.085938 180.140625 191.210938 180.140625 C 189.410156 180.140625 187.609375 180.144531 185.808594 180.144531 C 184.238281 180.144531 182.671875 180.148438 181.101562 180.148438 C 180.273438 180.148438 179.441406 180.148438 178.609375 180.148438 C 177.828125 180.148438 177.046875 180.152344 176.265625 180.148438 C 175.976562 180.148438 175.691406 180.152344 175.402344 180.152344 C 175.011719 180.152344 174.621094 180.152344 174.230469 180.152344 L 173.878906 180.152344 C 173.613281 180.152344 173.347656 180.144531 173.082031 180.132812 L 172.925781 179.976562 C 172.914062 179.746094 172.90625 179.515625 172.90625 179.285156 L 172.90625 177.777344 C 172.90625 177.277344 172.90625 176.78125 172.90625 176.28125 C 172.910156 175.742188 172.90625 175.203125 172.90625 174.660156 C 172.90625 173.710938 172.90625 172.765625 172.910156 171.816406 C 172.910156 170.40625 172.910156 168.996094 172.910156 167.585938 C 172.910156 165.214844 172.910156 162.84375 172.910156 160.46875 C 172.910156 158.121094 172.910156 155.773438 172.910156 153.421875 L 172.910156 152.980469 L 172.914062 150.757812 C 172.914062 145.503906 172.914062 140.253906 172.914062 135 C 172.917969 129.898438 172.917969 124.792969 172.917969 119.691406 L 172.917969 119.214844 L 172.921875 104.828125 L 172.921875 104.378906 C 172.921875 94.496094 172.925781 84.613281 172.925781 74.734375 C 173.382812 74.582031 173.65625 74.5625 174.125 74.570312 L 174.585938 74.574219 L 175.085938 74.585938 L 176.171875 74.601562 L 176.757812 74.609375 C 177.882812 74.625 179.003906 74.632812 180.128906 74.644531 C 181.320312 74.652344 182.507812 74.664062 183.699219 74.6875 C 184.746094 74.703125 185.792969 74.714844 186.839844 74.71875 C 187.238281 74.722656 187.636719 74.726562 188.035156 74.738281 C 189.976562 74.867188 189.976562 74.867188 191.828125 74.429688 C 192.332031 74.046875 192.625 73.578125 192.921875 73.027344 C 193.089844 72.824219 193.265625 72.621094 193.445312 72.425781 L 193.707031 72.128906 C 195.605469 69.980469 195.605469 69.980469 196.609375 69.136719 C 196.964844 68.832031 197.304688 68.511719 197.644531 68.191406 C 198.664062 67.234375 199.71875 66.351562 200.832031 65.511719 C 201.042969 65.347656 201.257812 65.183594 201.46875 65.023438 C 203.175781 63.714844 204.960938 62.523438 206.824219 61.453125 C 207.144531 61.269531 207.464844 61.082031 207.78125 60.894531 C 215.433594 56.40625 224.597656 53.636719 233.503906 53.625 " fill-opacity="1" fill-rule="nonzero"/><path fill="#86d1e2" d="M 173.082031 74.578125 C 173.320312 74.5625 173.558594 74.558594 173.792969 74.558594 L 175.320312 74.558594 C 175.910156 74.558594 176.503906 74.5625 177.097656 74.5625 L 178.328125 74.5625 C 179.296875 74.5625 180.269531 74.566406 181.238281 74.566406 C 182.34375 74.566406 183.449219 74.570312 184.554688 74.570312 C 186.824219 74.570312 189.097656 74.574219 191.371094 74.578125 C 191.1875 75.054688 191.015625 75.457031 190.695312 75.863281 L 190.476562 76.144531 L 190.238281 76.449219 C 188.640625 78.535156 187.21875 80.753906 185.976562 83.070312 C 185.847656 83.3125 185.714844 83.554688 185.578125 83.796875 C 184.238281 86.222656 183.175781 88.714844 182.226562 91.316406 L 182.050781 91.800781 C 180.007812 97.449219 179.054688 103.316406 178.816406 109.296875 L 178.796875 109.710938 C 178.492188 116.984375 181.070312 124.421875 183.933594 130.996094 C 184.027344 131.21875 184.121094 131.441406 184.214844 131.660156 C 184.429688 132.15625 184.648438 132.652344 184.867188 133.144531 C 184.976562 133.386719 185.082031 133.625 185.1875 133.867188 C 186.027344 135.761719 186.921875 137.605469 187.902344 139.429688 C 188.132812 139.867188 188.363281 140.308594 188.585938 140.746094 C 189.664062 142.847656 190.804688 144.914062 192.015625 146.941406 C 192.3125 147.449219 192.613281 147.953125 192.910156 148.460938 C 195.308594 152.546875 197.84375 156.539062 200.480469 160.472656 C 200.824219 160.984375 201.164062 161.496094 201.503906 162.007812 L 202.222656 163.082031 L 202.539062 163.464844 C 202.742188 163.773438 202.839844 163.992188 202.898438 164.355469 C 202.917969 164.769531 202.917969 165.183594 202.914062 165.597656 L 202.914062 166.074219 C 202.910156 166.59375 202.90625 167.113281 202.902344 167.628906 C 202.902344 167.988281 202.898438 168.351562 202.898438 168.710938 C 202.898438 169.65625 202.890625 170.601562 202.882812 171.550781 C 202.878906 172.515625 202.875 173.480469 202.871094 174.449219 C 202.867188 176.34375 202.855469 178.238281 202.839844 180.132812 C 198.964844 180.136719 195.085938 180.140625 191.210938 180.140625 C 189.410156 180.140625 187.609375 180.144531 185.808594 180.144531 C 184.238281 180.144531 182.671875 180.148438 181.101562 180.148438 C 180.273438 180.148438 179.441406 180.148438 178.609375 180.148438 C 177.828125 180.148438 177.046875 180.152344 176.265625 180.148438 C 175.976562 180.148438 175.691406 180.152344 175.402344 180.152344 C 175.011719 180.152344 174.621094 180.152344 174.230469 180.152344 L 173.878906 180.152344 C 173.613281 180.152344 173.347656 180.144531 173.082031 180.132812 L 172.925781 179.976562 C 172.914062 179.746094 172.90625 179.515625 172.90625 179.285156 L 172.90625 177.777344 C 172.90625 177.277344 172.90625 176.78125 172.90625 176.28125 C 172.90625 175.742188 172.90625 175.203125 172.90625 174.664062 C 172.90625 173.714844 172.90625 172.765625 172.90625 171.816406 C 172.90625 170.410156 172.90625 169 172.90625 167.589844 C 172.90625 165.070312 172.90625 162.554688 172.90625 160.035156 C 172.90625 157.832031 172.90625 155.632812 172.90625 153.429688 L 172.90625 151.210938 C 172.90625 145.652344 172.90625 140.09375 172.90625 134.53125 C 172.90625 129.589844 172.90625 124.644531 172.90625 119.703125 C 172.902344 113.410156 172.898438 107.125 172.90625 100.839844 C 172.90625 98.640625 172.90625 96.4375 172.90625 94.234375 C 172.90625 91.734375 172.90625 89.230469 172.90625 86.726562 C 172.90625 85.324219 172.90625 83.921875 172.90625 82.519531 C 172.90625 81.585938 172.90625 80.652344 172.90625 79.714844 C 172.90625 79.183594 172.90625 78.648438 172.90625 78.113281 C 172.90625 77.542969 172.90625 76.96875 172.90625 76.394531 L 172.90625 75.027344 L 172.925781 74.734375 Z M 173.082031 74.578125 " fill-opacity="1" fill-rule="nonzero"/><path fill="#7edcee" d="M 191.371094 74.578125 C 191.132812 75.320312 190.710938 75.84375 190.238281 76.449219 C 188.640625 78.535156 187.21875 80.753906 185.976562 83.070312 C 185.84375 83.3125 185.714844 83.554688 185.578125 83.796875 C 184.238281 86.222656 183.175781 88.714844 182.226562 91.316406 L 182.050781 91.800781 C 180.007812 97.449219 179.054688 103.316406 178.816406 109.296875 L 178.796875 109.710938 C 178.492188 116.984375 181.070312 124.421875 183.933594 130.996094 C 184.027344 131.21875 184.121094 131.441406 184.214844 131.660156 C 184.429688 132.15625 184.648438 132.652344 184.867188 133.144531 C 184.976562 133.386719 185.082031 133.625 185.1875 133.867188 C 186.027344 135.761719 186.921875 137.605469 187.902344 139.429688 C 188.132812 139.867188 188.363281 140.308594 188.585938 140.746094 C 189.664062 142.847656 190.804688 144.914062 192.015625 146.941406 C 192.3125 147.449219 192.613281 147.953125 192.910156 148.460938 C 195.207031 152.371094 197.546875 156.304688 200.207031 159.984375 L 199.898438 160.601562 L 199.769531 160.148438 L 199.585938 159.671875 L 199.121094 159.519531 C 198.867188 159.175781 198.695312 158.816406 198.5 158.433594 L 198.5 158.121094 L 198.191406 158.121094 C 198.0625 157.898438 197.933594 157.671875 197.804688 157.445312 L 197.585938 157.0625 C 197.417969 156.726562 197.417969 156.726562 197.417969 156.417969 L 197.105469 156.261719 C 196.933594 156.007812 196.765625 155.75 196.601562 155.488281 C 196.175781 154.796875 195.726562 154.117188 195.257812 153.453125 C 195.089844 153.164062 195.089844 153.164062 195.089844 152.699219 L 194.78125 152.699219 C 194.296875 151.894531 194.296875 151.894531 194.160156 151.613281 L 194.160156 151.148438 L 193.851562 150.992188 C 193.5625 150.601562 193.3125 150.183594 193.058594 149.773438 L 192.835938 149.425781 L 192.628906 149.09375 L 192.4375 148.789062 C 192.300781 148.511719 192.300781 148.511719 192.300781 148.046875 L 191.992188 148.046875 L 191.992188 147.582031 L 191.683594 147.582031 L 191.441406 147.089844 C 191.046875 146.296875 190.617188 145.527344 190.191406 144.753906 C 189.976562 144.328125 189.976562 144.328125 189.976562 144.019531 L 189.667969 144.019531 C 189.4375 143.5625 189.210938 143.109375 188.984375 142.652344 C 188.835938 142.359375 188.6875 142.0625 188.535156 141.769531 C 188.117188 140.949219 188.117188 140.949219 188.117188 140.609375 L 187.808594 140.453125 C 187.609375 140.09375 187.421875 139.726562 187.246094 139.359375 L 186.910156 138.675781 L 186.738281 138.324219 C 186.523438 137.886719 186.304688 137.449219 186.082031 137.015625 C 185.574219 136 185.082031 134.984375 184.613281 133.949219 C 184.464844 133.628906 184.316406 133.3125 184.167969 132.996094 C 184.097656 132.84375 184.023438 132.695312 183.949219 132.539062 L 183.757812 132.136719 C 183.621094 131.773438 183.621094 131.773438 183.621094 131.152344 L 183.3125 131.152344 L 183.128906 130.625 C 182.582031 129.042969 182.582031 129.042969 181.925781 127.5 C 181.320312 126.117188 180.824219 124.726562 180.523438 123.246094 L 180.210938 122.78125 C 180.121094 122.492188 180.039062 122.203125 179.964844 121.90625 L 179.832031 121.371094 L 179.6875 120.796875 L 179.542969 120.207031 C 178.65625 116.558594 178.0625 112.90625 178.195312 109.144531 L 178.214844 108.609375 C 178.300781 106.097656 178.519531 103.636719 178.953125 101.160156 L 179.011719 100.828125 C 179.359375 98.839844 179.730469 96.804688 180.410156 94.898438 C 180.542969 94.507812 180.648438 94.109375 180.753906 93.710938 C 180.996094 92.804688 181.308594 91.953125 181.683594 91.09375 C 181.902344 90.574219 182.082031 90.058594 182.25 89.519531 C 182.390625 89.128906 182.550781 88.75 182.714844 88.367188 C 182.957031 87.808594 183.1875 87.242188 183.417969 86.675781 L 183.933594 85.429688 L 184.242188 85.429688 L 184.316406 85.132812 C 184.539062 84.3125 184.808594 83.648438 185.285156 82.941406 C 185.605469 82.449219 185.847656 81.925781 186.101562 81.398438 L 186.410156 81.398438 L 186.527344 81 C 186.738281 80.425781 187.011719 79.925781 187.332031 79.410156 L 187.496094 79.136719 C 187.640625 78.902344 187.800781 78.675781 187.960938 78.453125 L 188.425781 78.296875 L 188.445312 77.988281 C 188.613281 77.417969 188.894531 77.074219 189.257812 76.613281 C 189.507812 76.285156 189.746094 75.949219 189.96875 75.605469 L 190.164062 75.300781 L 190.285156 75.042969 L 190.132812 74.734375 C 191.023438 74.578125 191.023438 74.578125 191.371094 74.578125 " fill-opacity="1" fill-rule="nonzero"/><path fill="#000000" d="M 317.851562 229.066406 C 318.316406 229.113281 318.316406 229.113281 318.617188 229.277344 C 318.671875 229.375 318.726562 229.476562 318.78125 229.578125 C 318.742188 230.140625 318.742188 230.140625 318.625 230.664062 L 318.472656 230.816406 C 317.566406 230.875 317.566406 230.875 317.230469 230.816406 C 316.921875 230.351562 316.921875 230.351562 316.875 229.878906 L 316.921875 229.421875 C 317.386719 229.113281 317.386719 229.113281 317.851562 229.066406 " fill-opacity="1" fill-rule="nonzero"/><path fill="#7edcee" d="M 200.363281 160.914062 L 200.828125 160.914062 C 201.058594 161.238281 201.277344 161.574219 201.476562 161.921875 L 201.648438 162.210938 C 201.789062 162.449219 201.929688 162.6875 202.066406 162.929688 L 201.757812 163.238281 C 201.226562 162.609375 200.75 161.945312 200.363281 161.222656 Z M 200.363281 160.914062 " fill-opacity="1" fill-rule="nonzero"/><g clip-path="url(#1a1b5dfde3)"><path fill="#88cfdf" d="M 252.167969 107.835938 C 252.167969 108.390625 252.140625 108.9375 252.085938 109.488281 C 252.03125 110.035156 251.949219 110.582031 251.84375 111.121094 C 251.734375 111.664062 251.601562 112.199219 251.441406 112.726562 C 251.28125 113.253906 251.097656 113.773438 250.882812 114.28125 C 250.671875 114.792969 250.4375 115.289062 250.179688 115.777344 C 249.917969 116.261719 249.636719 116.734375 249.328125 117.191406 C 249.023438 117.652344 248.695312 118.09375 248.34375 118.519531 C 247.996094 118.945312 247.625 119.355469 247.234375 119.746094 C 246.84375 120.136719 246.4375 120.503906 246.011719 120.855469 C 245.582031 121.203125 245.140625 121.53125 244.683594 121.839844 C 244.222656 122.144531 243.75 122.429688 243.265625 122.6875 C 242.777344 122.949219 242.28125 123.183594 241.769531 123.394531 C 241.261719 123.605469 240.742188 123.792969 240.214844 123.953125 C 239.6875 124.113281 239.152344 124.246094 238.613281 124.355469 C 238.070312 124.460938 237.527344 124.542969 236.976562 124.597656 C 236.429688 124.648438 235.878906 124.675781 235.328125 124.675781 C 234.773438 124.675781 234.226562 124.648438 233.675781 124.597656 C 233.128906 124.542969 232.582031 124.460938 232.042969 124.355469 C 231.5 124.246094 230.964844 124.113281 230.4375 123.953125 C 229.910156 123.792969 229.390625 123.605469 228.882812 123.394531 C 228.371094 123.183594 227.875 122.949219 227.386719 122.6875 C 226.902344 122.429688 226.429688 122.144531 225.972656 121.839844 C 225.511719 121.53125 225.070312 121.203125 224.644531 120.855469 C 224.21875 120.503906 223.808594 120.136719 223.417969 119.746094 C 223.027344 119.355469 222.660156 118.945312 222.308594 118.519531 C 221.960938 118.09375 221.632812 117.652344 221.324219 117.191406 C 221.019531 116.734375 220.734375 116.261719 220.476562 115.777344 C 220.214844 115.289062 219.980469 114.792969 219.769531 114.28125 C 219.558594 113.773438 219.371094 113.253906 219.210938 112.726562 C 219.050781 112.199219 218.917969 111.664062 218.808594 111.121094 C 218.703125 110.582031 218.621094 110.035156 218.566406 109.488281 C 218.515625 108.9375 218.488281 108.390625 218.488281 107.835938 C 218.488281 107.285156 218.515625 106.734375 218.566406 106.1875 C 218.621094 105.636719 218.703125 105.09375 218.808594 104.550781 C 218.917969 104.011719 219.050781 103.476562 219.210938 102.949219 C 219.371094 102.421875 219.558594 101.902344 219.769531 101.394531 C 219.980469 100.882812 220.214844 100.386719 220.476562 99.898438 C 220.734375 99.414062 221.019531 98.941406 221.324219 98.480469 C 221.632812 98.023438 221.960938 97.582031 222.308594 97.152344 C 222.660156 96.726562 223.027344 96.320312 223.417969 95.929688 C 223.808594 95.539062 224.21875 95.167969 224.644531 94.820312 C 225.070312 94.46875 225.511719 94.140625 225.972656 93.835938 C 226.429688 93.527344 226.902344 93.246094 227.386719 92.984375 C 227.875 92.726562 228.371094 92.492188 228.882812 92.28125 C 229.390625 92.066406 229.910156 91.882812 230.4375 91.722656 C 230.964844 91.5625 231.5 91.429688 232.042969 91.320312 C 232.582031 91.214844 233.128906 91.132812 233.675781 91.078125 C 234.226562 91.023438 234.773438 90.996094 235.328125 90.996094 C 235.878906 90.996094 236.429688 91.023438 236.976562 91.078125 C 237.527344 91.132812 238.070312 91.214844 238.613281 91.320312 C 239.152344 91.429688 239.6875 91.5625 240.214844 91.722656 C 240.742188 91.882812 241.261719 92.066406 241.769531 92.28125 C 242.28125 92.492188 242.777344 92.726562 243.265625 92.984375 C 243.75 93.246094 244.222656 93.527344 244.683594 93.835938 C 245.140625 94.140625 245.582031 94.46875 246.011719 94.820312 C 246.4375 95.167969 246.84375 95.539062 247.234375 95.929688 C 247.625 96.320312 247.996094 96.726562 248.34375 97.152344 C 248.695312 97.582031 249.023438 98.023438 249.328125 98.480469 C 249.636719 98.941406 249.917969 99.414062 250.179688 99.898438 C 250.4375 100.386719 250.671875 100.882812 250.882812 101.394531 C 251.097656 101.902344 251.28125 102.421875 251.441406 102.949219 C 251.601562 103.476562 251.734375 104.011719 251.84375 104.550781 C 251.949219 105.09375 252.03125 105.636719 252.085938 106.1875 C 252.140625 106.734375 252.167969 107.285156 252.167969 107.835938 Z M 252.167969 107.835938 " fill-opacity="1" fill-rule="nonzero"/></g><g fill="#949699" fill-opacity="1"><g transform="translate(4.860509, 240.449852)"><g><path d="M 5.15625 0 L 5.15625 -40.796875 L 14.046875 -40.796875 L 14.046875 0 Z M 5.15625 0 "/></g></g></g><g fill="#949699" fill-opacity="1"><g transform="translate(24.236843, 240.449852)"><g><path d="M 12.953125 0 L 4.265625 0 L 4.265625 -31.375 L 12.953125 -31.375 L 12.953125 -28.6875 C 13.835938 -29.6875 14.988281 -30.472656 16.40625 -31.046875 C 17.832031 -31.628906 19.460938 -31.921875 21.296875 -31.921875 C 24.617188 -31.921875 27.039062 -30.835938 28.5625 -28.671875 C 30.082031 -26.515625 30.84375 -23.519531 30.84375 -19.6875 L 30.84375 -9.234375 C 30.84375 -8.359375 30.984375 -7.75 31.265625 -7.40625 C 31.546875 -7.070312 31.984375 -6.90625 32.578125 -6.90625 C 33.421875 -6.90625 34.222656 -7.179688 34.984375 -7.734375 L 35.28125 -0.78125 C 34.601562 -0.414062 33.753906 -0.0976562 32.734375 0.171875 C 31.710938 0.453125 30.539062 0.59375 29.21875 0.59375 C 26.78125 0.59375 24.976562 0.015625 23.8125 -1.140625 C 22.65625 -2.296875 22.078125 -4.195312 22.078125 -6.84375 L 22.078125 -17.875 C 22.078125 -21.800781 20.617188 -23.765625 17.703125 -23.765625 C 16.460938 -23.765625 15.460938 -23.289062 14.703125 -22.34375 C 13.941406 -21.40625 13.359375 -20.414062 12.953125 -19.375 Z M 12.953125 0 "/></g></g></g><g fill="#949699" fill-opacity="1"><g transform="translate(61.42975, 240.449852)"><g><path d="M 24.546875 -29.875 L 22.5 -22.625 C 21.34375 -23.175781 20.113281 -23.640625 18.8125 -24.015625 C 17.507812 -24.398438 16.21875 -24.59375 14.9375 -24.59375 C 12.613281 -24.59375 11.453125 -23.816406 11.453125 -22.265625 C 11.453125 -21.660156 11.660156 -21.15625 12.078125 -20.75 C 12.503906 -20.351562 13.335938 -19.957031 14.578125 -19.5625 L 18.234375 -18.484375 C 20.472656 -17.765625 22.09375 -16.644531 23.09375 -15.125 C 24.09375 -13.601562 24.59375 -11.800781 24.59375 -9.71875 C 24.59375 -7.875 24.144531 -6.171875 23.25 -4.609375 C 22.351562 -3.054688 21.050781 -1.800781 19.34375 -0.84375 C 17.644531 0.113281 15.578125 0.59375 13.140625 0.59375 C 10.941406 0.59375 8.941406 0.34375 7.140625 -0.15625 C 5.335938 -0.65625 3.914062 -1.164062 2.875 -1.6875 L 4.5625 -9.234375 C 5.601562 -8.640625 6.820312 -8.050781 8.21875 -7.46875 C 9.613281 -6.882812 11.035156 -6.59375 12.484375 -6.59375 C 14.679688 -6.59375 15.78125 -7.4375 15.78125 -9.125 C 15.78125 -10.039062 15.519531 -10.6875 15 -11.0625 C 14.476562 -11.445312 13.78125 -11.78125 12.90625 -12.0625 L 9 -13.3125 C 4.675781 -14.757812 2.515625 -17.660156 2.515625 -22.015625 C 2.515625 -24.859375 3.546875 -27.21875 5.609375 -29.09375 C 7.671875 -30.976562 10.582031 -31.921875 14.34375 -31.921875 C 15.539062 -31.921875 16.789062 -31.816406 18.09375 -31.609375 C 19.394531 -31.410156 20.613281 -31.160156 21.75 -30.859375 C 22.882812 -30.566406 23.816406 -30.238281 24.546875 -29.875 Z M 24.546875 -29.875 "/></g></g></g><g fill="#949699" fill-opacity="1"><g transform="translate(89.444439, 240.449852)"><g><path d="M 14.703125 -24.484375 L 14.703125 -10.921875 C 14.703125 -9.554688 14.96875 -8.570312 15.5 -7.96875 C 16.039062 -7.375 16.832031 -7.078125 17.875 -7.078125 C 18.675781 -7.078125 19.554688 -7.253906 20.515625 -7.609375 C 21.472656 -7.972656 22.296875 -8.414062 22.984375 -8.9375 L 25.078125 -2.046875 C 23.722656 -1.285156 22.332031 -0.65625 20.90625 -0.15625 C 19.488281 0.34375 17.703125 0.59375 15.546875 0.59375 C 12.785156 0.59375 10.503906 -0.222656 8.703125 -1.859375 C 6.898438 -3.492188 6 -6.132812 6 -9.78125 L 6 -24.484375 L 1.5 -24.484375 L 1.5 -31.375 L 6.546875 -31.375 L 7.5625 -39.359375 L 14.703125 -39.359375 L 14.703125 -31.375 L 23.875 -31.375 L 23.875 -24.484375 Z M 14.703125 -24.484375 "/></g></g></g><g fill="#949699" fill-opacity="1"><g transform="translate(116.559301, 240.449852)"><g><path d="M 3.78125 -40.265625 C 3.78125 -41.785156 4.226562 -42.851562 5.125 -43.46875 C 6.03125 -44.09375 7.203125 -44.40625 8.640625 -44.40625 C 10.035156 -44.40625 11.160156 -44.09375 12.015625 -43.46875 C 12.878906 -42.851562 13.3125 -41.785156 13.3125 -40.265625 C 13.3125 -38.742188 12.878906 -37.660156 12.015625 -37.015625 C 11.160156 -36.378906 10.035156 -36.0625 8.640625 -36.0625 C 7.203125 -36.0625 6.03125 -36.378906 5.125 -37.015625 C 4.226562 -37.660156 3.78125 -38.742188 3.78125 -40.265625 Z M 4.203125 -31.375 L 12.953125 -31.375 L 12.953125 -9.234375 C 12.953125 -8.359375 13.09375 -7.75 13.375 -7.40625 C 13.65625 -7.070312 14.078125 -6.90625 14.640625 -6.90625 C 15.484375 -6.90625 16.285156 -7.179688 17.046875 -7.734375 L 17.34375 -0.78125 C 16.695312 -0.414062 15.863281 -0.0976562 14.84375 0.171875 C 13.820312 0.453125 12.65625 0.59375 11.34375 0.59375 C 8.90625 0.59375 7.101562 0.015625 5.9375 -1.140625 C 4.78125 -2.296875 4.203125 -4.195312 4.203125 -6.84375 Z M 4.203125 -31.375 "/></g></g></g><g fill="#949699" fill-opacity="1"><g transform="translate(136.415578, 240.449852)"><g><path d="M 14.703125 -24.484375 L 14.703125 -10.921875 C 14.703125 -9.554688 14.96875 -8.570312 15.5 -7.96875 C 16.039062 -7.375 16.832031 -7.078125 17.875 -7.078125 C 18.675781 -7.078125 19.554688 -7.253906 20.515625 -7.609375 C 21.472656 -7.972656 22.296875 -8.414062 22.984375 -8.9375 L 25.078125 -2.046875 C 23.722656 -1.285156 22.332031 -0.65625 20.90625 -0.15625 C 19.488281 0.34375 17.703125 0.59375 15.546875 0.59375 C 12.785156 0.59375 10.503906 -0.222656 8.703125 -1.859375 C 6.898438 -3.492188 6 -6.132812 6 -9.78125 L 6 -24.484375 L 1.5 -24.484375 L 1.5 -31.375 L 6.546875 -31.375 L 7.5625 -39.359375 L 14.703125 -39.359375 L 14.703125 -31.375 L 23.875 -31.375 L 23.875 -24.484375 Z M 14.703125 -24.484375 "/></g></g></g><g fill="#949699" fill-opacity="1"><g transform="translate(163.53044, 240.449852)"><g><path d="M 21.84375 -31.375 L 30.546875 -31.375 L 30.546875 -9.234375 C 30.546875 -8.359375 30.691406 -7.75 30.984375 -7.40625 C 31.285156 -7.070312 31.71875 -6.90625 32.28125 -6.90625 C 33.125 -6.90625 33.925781 -7.179688 34.6875 -7.734375 L 34.984375 -0.78125 C 34.335938 -0.414062 33.503906 -0.0976562 32.484375 0.171875 C 31.460938 0.453125 30.273438 0.59375 28.921875 0.59375 C 27.242188 0.59375 25.863281 0.328125 24.78125 -0.203125 C 23.695312 -0.742188 22.914062 -1.613281 22.4375 -2.8125 C 21.4375 -1.65625 20.207031 -0.796875 18.75 -0.234375 C 17.289062 0.316406 15.640625 0.59375 13.796875 0.59375 C 10.359375 0.59375 7.859375 -0.472656 6.296875 -2.609375 C 4.734375 -4.742188 3.953125 -7.753906 3.953125 -11.640625 L 3.953125 -31.375 L 12.71875 -31.375 L 12.71875 -12.78125 C 12.71875 -11.132812 13 -9.84375 13.5625 -8.90625 C 14.125 -7.96875 15.222656 -7.5 16.859375 -7.5 C 18.140625 -7.5 19.179688 -7.828125 19.984375 -8.484375 C 20.785156 -9.148438 21.40625 -9.921875 21.84375 -10.796875 Z M 21.84375 -31.375 "/></g></g></g><g fill="#949699" fill-opacity="1"><g transform="translate(200.843315, 240.449852)"><g><path d="M 14.703125 -24.484375 L 14.703125 -10.921875 C 14.703125 -9.554688 14.96875 -8.570312 15.5 -7.96875 C 16.039062 -7.375 16.832031 -7.078125 17.875 -7.078125 C 18.675781 -7.078125 19.554688 -7.253906 20.515625 -7.609375 C 21.472656 -7.972656 22.296875 -8.414062 22.984375 -8.9375 L 25.078125 -2.046875 C 23.722656 -1.285156 22.332031 -0.65625 20.90625 -0.15625 C 19.488281 0.34375 17.703125 0.59375 15.546875 0.59375 C 12.785156 0.59375 10.503906 -0.222656 8.703125 -1.859375 C 6.898438 -3.492188 6 -6.132812 6 -9.78125 L 6 -24.484375 L 1.5 -24.484375 L 1.5 -31.375 L 6.546875 -31.375 L 7.5625 -39.359375 L 14.703125 -39.359375 L 14.703125 -31.375 L 23.875 -31.375 L 23.875 -24.484375 Z M 14.703125 -24.484375 "/></g></g></g><g fill="#949699" fill-opacity="1"><g transform="translate(227.958166, 240.449852)"><g><path d="M 2.515625 -15.59375 C 2.515625 -19.113281 3.113281 -22.101562 4.3125 -24.5625 C 5.519531 -27.03125 7.191406 -28.921875 9.328125 -30.234375 C 11.472656 -31.554688 13.984375 -32.21875 16.859375 -32.21875 C 21.222656 -32.21875 24.710938 -30.753906 27.328125 -27.828125 C 29.953125 -24.910156 31.265625 -20.832031 31.265625 -15.59375 C 31.265625 -10.394531 29.953125 -6.351562 27.328125 -3.46875 C 24.710938 -0.59375 21.222656 0.84375 16.859375 0.84375 C 13.984375 0.84375 11.472656 0.191406 9.328125 -1.109375 C 7.191406 -2.410156 5.519531 -4.289062 4.3125 -6.75 C 3.113281 -9.207031 2.515625 -12.15625 2.515625 -15.59375 Z M 11.09375 -15.59375 C 11.09375 -12.800781 11.613281 -10.703125 12.65625 -9.296875 C 13.695312 -7.898438 15.097656 -7.203125 16.859375 -7.203125 C 18.660156 -7.203125 20.070312 -7.898438 21.09375 -9.296875 C 22.113281 -10.703125 22.625 -12.800781 22.625 -15.59375 C 22.625 -18.476562 22.113281 -20.617188 21.09375 -22.015625 C 20.070312 -23.421875 18.660156 -24.125 16.859375 -24.125 C 15.097656 -24.125 13.695312 -23.421875 12.65625 -22.015625 C 11.613281 -20.617188 11.09375 -18.476562 11.09375 -15.59375 Z M 11.09375 -15.59375 "/></g></g></g><g fill="#949699" fill-opacity="1"><g transform="translate(262.571598, 240.449852)"><g/></g></g><g fill="#949699" fill-opacity="1"><g transform="translate(276.309062, 240.449852)"><g><path d="M 22.4375 -42.59375 L 31.140625 -42.59375 L 31.140625 -9.78125 C 31.140625 -8.976562 31.25 -8.296875 31.46875 -7.734375 C 31.6875 -7.179688 32.15625 -6.90625 32.875 -6.90625 C 33.675781 -6.90625 34.476562 -7.203125 35.28125 -7.796875 L 35.578125 -0.78125 C 34.941406 -0.414062 34.019531 -0.0976562 32.8125 0.171875 C 31.613281 0.453125 30.375 0.59375 29.09375 0.59375 C 27.65625 0.59375 26.425781 0.296875 25.40625 -0.296875 C 24.382812 -0.898438 23.613281 -1.878906 23.09375 -3.234375 C 22.21875 -2.078125 21.085938 -1.148438 19.703125 -0.453125 C 18.328125 0.242188 16.695312 0.59375 14.8125 0.59375 C 11.175781 0.59375 8.238281 -0.820312 6 -3.65625 C 3.757812 -6.5 2.640625 -10.519531 2.640625 -15.71875 C 2.640625 -20.957031 3.757812 -24.96875 6 -27.75 C 8.238281 -30.53125 11.175781 -31.921875 14.8125 -31.921875 C 16.414062 -31.921875 17.867188 -31.660156 19.171875 -31.140625 C 20.472656 -30.617188 21.5625 -29.9375 22.4375 -29.09375 Z M 11.515625 -15.59375 C 11.515625 -12.957031 12.054688 -10.890625 13.140625 -9.390625 C 14.222656 -7.890625 15.703125 -7.140625 17.578125 -7.140625 C 18.617188 -7.140625 19.554688 -7.367188 20.390625 -7.828125 C 21.234375 -8.285156 21.914062 -8.835938 22.4375 -9.484375 L 22.4375 -21.84375 C 21.957031 -22.4375 21.285156 -22.972656 20.421875 -23.453125 C 19.566406 -23.941406 18.617188 -24.1875 17.578125 -24.1875 C 15.660156 -24.1875 14.171875 -23.4375 13.109375 -21.9375 C 12.046875 -20.4375 11.515625 -18.320312 11.515625 -15.59375 Z M 11.515625 -15.59375 "/></g></g></g><g fill="#949699" fill-opacity="1"><g transform="translate(314.341805, 240.449852)"><g><path d="M 27.84375 -13.140625 L 11.046875 -13.140625 C 11.203125 -11.179688 11.800781 -9.59375 12.84375 -8.375 C 13.882812 -7.15625 15.582031 -6.546875 17.9375 -6.546875 C 19.457031 -6.546875 20.835938 -6.832031 22.078125 -7.40625 C 23.316406 -7.988281 24.378906 -8.660156 25.265625 -9.421875 L 28.4375 -2.9375 C 27.039062 -1.78125 25.351562 -0.859375 23.375 -0.171875 C 21.394531 0.503906 19.144531 0.84375 16.625 0.84375 C 13.414062 0.84375 10.769531 0.132812 8.6875 -1.28125 C 6.613281 -2.707031 5.066406 -4.660156 4.046875 -7.140625 C 3.023438 -9.617188 2.515625 -12.4375 2.515625 -15.59375 C 2.515625 -18.800781 3.09375 -21.65625 4.25 -24.15625 C 5.414062 -26.65625 7.054688 -28.625 9.171875 -30.0625 C 11.296875 -31.5 13.78125 -32.21875 16.625 -32.21875 C 19.457031 -32.21875 21.753906 -31.65625 23.515625 -30.53125 C 25.273438 -29.414062 26.566406 -27.90625 27.390625 -26 C 28.210938 -24.101562 28.625 -21.976562 28.625 -19.625 C 28.625 -18.5 28.550781 -17.375 28.40625 -16.25 C 28.269531 -15.132812 28.082031 -14.097656 27.84375 -13.140625 Z M 11.515625 -19.5 L 20.765625 -19.5 C 20.878906 -19.9375 20.9375 -20.394531 20.9375 -20.875 C 20.9375 -22.28125 20.546875 -23.3125 19.765625 -23.96875 C 18.984375 -24.625 17.957031 -24.953125 16.6875 -24.953125 C 15.082031 -24.953125 13.847656 -24.453125 12.984375 -23.453125 C 12.128906 -22.453125 11.640625 -21.132812 11.515625 -19.5 Z M 11.515625 -19.5 "/></g></g></g><g fill="#949699" fill-opacity="1"><g transform="translate(4.860509, 294.449849)"><g><path d="M 4.015625 -42.59375 L 12.78125 -42.59375 L 12.78125 -9.59375 C 12.78125 -8.5625 12.957031 -7.851562 13.3125 -7.46875 C 13.675781 -7.09375 14.175781 -6.90625 14.8125 -6.90625 C 15.332031 -6.90625 15.8125 -6.984375 16.25 -7.140625 C 16.695312 -7.296875 17.097656 -7.492188 17.453125 -7.734375 L 17.765625 -0.78125 C 17.078125 -0.457031 16.191406 -0.148438 15.109375 0.140625 C 14.035156 0.441406 12.800781 0.59375 11.40625 0.59375 C 8.957031 0.59375 7.113281 -0.00390625 5.875 -1.203125 C 4.632812 -2.398438 4.015625 -4.398438 4.015625 -7.203125 Z M 4.015625 -42.59375 "/></g></g></g><g fill="#949699" fill-opacity="1"><g transform="translate(23.096817, 294.449849)"><g><path d="M 31.140625 -31.375 L 31.140625 -9.65625 C 31.140625 -8.851562 31.257812 -8.191406 31.5 -7.671875 C 31.738281 -7.160156 32.160156 -6.90625 32.765625 -6.90625 C 33.242188 -6.90625 33.679688 -6.984375 34.078125 -7.140625 C 34.484375 -7.296875 34.882812 -7.515625 35.28125 -7.796875 L 35.578125 -0.78125 C 34.859375 -0.414062 33.925781 -0.0976562 32.78125 0.171875 C 31.644531 0.453125 30.4375 0.59375 29.15625 0.59375 C 27.632812 0.59375 26.34375 0.34375 25.28125 -0.15625 C 24.226562 -0.65625 23.484375 -1.679688 23.046875 -3.234375 C 21.203125 -0.710938 18.457031 0.546875 14.8125 0.546875 C 11.132812 0.546875 8.1875 -0.84375 5.96875 -3.625 C 3.75 -6.40625 2.640625 -10.394531 2.640625 -15.59375 C 2.640625 -20.59375 3.71875 -24.5625 5.875 -27.5 C 8.039062 -30.445312 11.125 -31.921875 15.125 -31.921875 C 16.40625 -31.921875 17.722656 -31.71875 19.078125 -31.3125 C 20.441406 -30.914062 21.539062 -30.195312 22.375 -29.15625 L 22.375 -31.375 Z M 22.375 -21.78125 C 21.894531 -22.382812 21.242188 -22.9375 20.421875 -23.4375 C 19.609375 -23.9375 18.679688 -24.1875 17.640625 -24.1875 C 15.679688 -24.1875 14.171875 -23.4375 13.109375 -21.9375 C 12.046875 -20.4375 11.515625 -18.320312 11.515625 -15.59375 C 11.515625 -12.957031 12.054688 -10.890625 13.140625 -9.390625 C 14.222656 -7.890625 15.722656 -7.140625 17.640625 -7.140625 C 18.640625 -7.140625 19.554688 -7.4375 20.390625 -8.03125 C 21.234375 -8.632812 21.894531 -9.257812 22.375 -9.90625 Z M 22.375 -21.78125 "/></g></g></g><g fill="#949699" fill-opacity="1"><g transform="translate(59.509591, 294.449849)"><g/></g></g><g fill="#949699" fill-opacity="1"><g transform="translate(71.627098, 294.449849)"><g><path d="M 5.15625 0 L 5.15625 -40.796875 L 22.5625 -40.796875 C 24.882812 -40.796875 27.015625 -40.265625 28.953125 -39.203125 C 30.890625 -38.148438 32.457031 -36.519531 33.65625 -34.3125 C 34.851562 -32.113281 35.453125 -29.296875 35.453125 -25.859375 C 35.453125 -22.773438 34.851562 -20.132812 33.65625 -17.9375 C 32.457031 -15.738281 30.890625 -14.054688 28.953125 -12.890625 C 27.015625 -11.734375 24.882812 -11.15625 22.5625 -11.15625 L 14.046875 -11.15625 L 14.046875 0 Z M 20.640625 -33.0625 L 14.046875 -33.0625 L 14.046875 -18.90625 L 20.640625 -18.90625 C 22.273438 -18.90625 23.644531 -19.535156 24.75 -20.796875 C 25.851562 -22.054688 26.40625 -23.765625 26.40625 -25.921875 C 26.40625 -28.242188 25.851562 -30.015625 24.75 -31.234375 C 23.644531 -32.453125 22.273438 -33.0625 20.640625 -33.0625 Z M 20.640625 -33.0625 "/></g></g></g><g fill="#949699" fill-opacity="1"><g transform="translate(108.339811, 294.449849)"><g><path d="M 25.375 -30.546875 L 24.296875 -22.3125 C 22.941406 -23.28125 21.34375 -23.765625 19.5 -23.765625 C 17.9375 -23.765625 16.816406 -23.191406 16.140625 -22.046875 C 15.460938 -20.910156 15.003906 -19.484375 14.765625 -17.765625 L 14.765625 0 L 6 0 L 6 -21.59375 C 6 -22.394531 5.898438 -23.066406 5.703125 -23.609375 C 5.503906 -24.148438 5.023438 -24.421875 4.265625 -24.421875 C 3.546875 -24.421875 2.742188 -24.117188 1.859375 -23.515625 L 1.5625 -30.59375 C 2.28125 -30.914062 3.226562 -31.226562 4.40625 -31.53125 C 5.59375 -31.832031 6.804688 -31.984375 8.046875 -31.984375 C 9.484375 -31.984375 10.710938 -31.679688 11.734375 -31.078125 C 12.753906 -30.484375 13.523438 -29.546875 14.046875 -28.265625 C 14.679688 -29.546875 15.5 -30.472656 16.5 -31.046875 C 17.5 -31.628906 18.859375 -31.921875 20.578125 -31.921875 C 21.578125 -31.921875 22.492188 -31.789062 23.328125 -31.53125 C 24.171875 -31.269531 24.851562 -30.941406 25.375 -30.546875 Z M 25.375 -30.546875 "/></g></g></g><g fill="#949699" fill-opacity="1"><g transform="translate(133.594734, 294.449849)"><g><path d="M 2.515625 -15.59375 C 2.515625 -19.113281 3.113281 -22.101562 4.3125 -24.5625 C 5.519531 -27.03125 7.191406 -28.921875 9.328125 -30.234375 C 11.472656 -31.554688 13.984375 -32.21875 16.859375 -32.21875 C 21.222656 -32.21875 24.710938 -30.753906 27.328125 -27.828125 C 29.953125 -24.910156 31.265625 -20.832031 31.265625 -15.59375 C 31.265625 -10.394531 29.953125 -6.351562 27.328125 -3.46875 C 24.710938 -0.59375 21.222656 0.84375 16.859375 0.84375 C 13.984375 0.84375 11.472656 0.191406 9.328125 -1.109375 C 7.191406 -2.410156 5.519531 -4.289062 4.3125 -6.75 C 3.113281 -9.207031 2.515625 -12.15625 2.515625 -15.59375 Z M 11.09375 -15.59375 C 11.09375 -12.800781 11.613281 -10.703125 12.65625 -9.296875 C 13.695312 -7.898438 15.097656 -7.203125 16.859375 -7.203125 C 18.660156 -7.203125 20.070312 -7.898438 21.09375 -9.296875 C 22.113281 -10.703125 22.625 -12.800781 22.625 -15.59375 C 22.625 -18.476562 22.113281 -20.617188 21.09375 -22.015625 C 20.070312 -23.421875 18.660156 -24.125 16.859375 -24.125 C 15.097656 -24.125 13.695312 -23.421875 12.65625 -22.015625 C 11.613281 -20.617188 11.09375 -18.476562 11.09375 -15.59375 Z M 11.09375 -15.59375 "/></g></g></g><g fill="#949699" fill-opacity="1"><g transform="translate(166.588175, 294.449849)"><g><path d="M 34.625 -15.65625 C 34.625 -10.414062 33.492188 -6.40625 31.234375 -3.625 C 28.972656 -0.84375 26.019531 0.546875 22.375 0.546875 C 20.78125 0.546875 19.34375 0.296875 18.0625 -0.203125 C 16.78125 -0.703125 15.679688 -1.394531 14.765625 -2.28125 L 14.765625 11.21875 L 6 11.21875 L 6 -21.59375 C 6 -22.394531 5.898438 -23.066406 5.703125 -23.609375 C 5.503906 -24.148438 5.023438 -24.421875 4.265625 -24.421875 C 3.546875 -24.421875 2.742188 -24.117188 1.859375 -23.515625 L 1.5625 -30.59375 C 2.28125 -30.914062 3.226562 -31.226562 4.40625 -31.53125 C 5.59375 -31.832031 6.804688 -31.984375 8.046875 -31.984375 C 9.523438 -31.984375 10.769531 -31.679688 11.78125 -31.078125 C 12.800781 -30.484375 13.570312 -29.484375 14.09375 -28.078125 C 14.976562 -29.234375 16.097656 -30.171875 17.453125 -30.890625 C 18.816406 -31.617188 20.457031 -31.984375 22.375 -31.984375 C 26.019531 -31.984375 28.972656 -30.570312 31.234375 -27.75 C 33.492188 -24.925781 34.625 -20.894531 34.625 -15.65625 Z M 25.734375 -15.78125 C 25.734375 -18.414062 25.179688 -20.484375 24.078125 -21.984375 C 22.984375 -23.484375 21.476562 -24.234375 19.5625 -24.234375 C 18.5625 -24.234375 17.628906 -24.003906 16.765625 -23.546875 C 15.910156 -23.085938 15.242188 -22.539062 14.765625 -21.90625 L 14.765625 -9.546875 C 15.203125 -8.898438 15.859375 -8.347656 16.734375 -7.890625 C 17.617188 -7.429688 18.5625 -7.203125 19.5625 -7.203125 C 21.476562 -7.203125 22.984375 -7.960938 24.078125 -9.484375 C 25.179688 -11.003906 25.734375 -13.101562 25.734375 -15.78125 Z M 25.734375 -15.78125 "/></g></g></g><g fill="#949699" fill-opacity="1"><g transform="translate(203.000938, 294.449849)"><g><path d="M 3.78125 -40.265625 C 3.78125 -41.785156 4.226562 -42.851562 5.125 -43.46875 C 6.03125 -44.09375 7.203125 -44.40625 8.640625 -44.40625 C 10.035156 -44.40625 11.160156 -44.09375 12.015625 -43.46875 C 12.878906 -42.851562 13.3125 -41.785156 13.3125 -40.265625 C 13.3125 -38.742188 12.878906 -37.660156 12.015625 -37.015625 C 11.160156 -36.378906 10.035156 -36.0625 8.640625 -36.0625 C 7.203125 -36.0625 6.03125 -36.378906 5.125 -37.015625 C 4.226562 -37.660156 3.78125 -38.742188 3.78125 -40.265625 Z M 4.203125 -31.375 L 12.953125 -31.375 L 12.953125 -9.234375 C 12.953125 -8.359375 13.09375 -7.75 13.375 -7.40625 C 13.65625 -7.070312 14.078125 -6.90625 14.640625 -6.90625 C 15.484375 -6.90625 16.285156 -7.179688 17.046875 -7.734375 L 17.34375 -0.78125 C 16.695312 -0.414062 15.863281 -0.0976562 14.84375 0.171875 C 13.820312 0.453125 12.65625 0.59375 11.34375 0.59375 C 8.90625 0.59375 7.101562 0.015625 5.9375 -1.140625 C 4.78125 -2.296875 4.203125 -4.195312 4.203125 -6.84375 Z M 4.203125 -31.375 "/></g></g></g><g fill="#949699" fill-opacity="1"><g transform="translate(221.297247, 294.449849)"><g><path d="M 27.84375 -13.140625 L 11.046875 -13.140625 C 11.203125 -11.179688 11.800781 -9.59375 12.84375 -8.375 C 13.882812 -7.15625 15.582031 -6.546875 17.9375 -6.546875 C 19.457031 -6.546875 20.835938 -6.832031 22.078125 -7.40625 C 23.316406 -7.988281 24.378906 -8.660156 25.265625 -9.421875 L 28.4375 -2.9375 C 27.039062 -1.78125 25.351562 -0.859375 23.375 -0.171875 C 21.394531 0.503906 19.144531 0.84375 16.625 0.84375 C 13.414062 0.84375 10.769531 0.132812 8.6875 -1.28125 C 6.613281 -2.707031 5.066406 -4.660156 4.046875 -7.140625 C 3.023438 -9.617188 2.515625 -12.4375 2.515625 -15.59375 C 2.515625 -18.800781 3.09375 -21.65625 4.25 -24.15625 C 5.414062 -26.65625 7.054688 -28.625 9.171875 -30.0625 C 11.296875 -31.5 13.78125 -32.21875 16.625 -32.21875 C 19.457031 -32.21875 21.753906 -31.65625 23.515625 -30.53125 C 25.273438 -29.414062 26.566406 -27.90625 27.390625 -26 C 28.210938 -24.101562 28.625 -21.976562 28.625 -19.625 C 28.625 -18.5 28.550781 -17.375 28.40625 -16.25 C 28.269531 -15.132812 28.082031 -14.097656 27.84375 -13.140625 Z M 11.515625 -19.5 L 20.765625 -19.5 C 20.878906 -19.9375 20.9375 -20.394531 20.9375 -20.875 C 20.9375 -22.28125 20.546875 -23.3125 19.765625 -23.96875 C 18.984375 -24.625 17.957031 -24.953125 16.6875 -24.953125 C 15.082031 -24.953125 13.847656 -24.453125 12.984375 -23.453125 C 12.128906 -22.453125 11.640625 -21.132812 11.515625 -19.5 Z M 11.515625 -19.5 "/></g></g></g><g fill="#949699" fill-opacity="1"><g transform="translate(251.771168, 294.449849)"><g><path d="M 22.4375 -42.59375 L 31.140625 -42.59375 L 31.140625 -9.78125 C 31.140625 -8.976562 31.25 -8.296875 31.46875 -7.734375 C 31.6875 -7.179688 32.15625 -6.90625 32.875 -6.90625 C 33.675781 -6.90625 34.476562 -7.203125 35.28125 -7.796875 L 35.578125 -0.78125 C 34.941406 -0.414062 34.019531 -0.0976562 32.8125 0.171875 C 31.613281 0.453125 30.375 0.59375 29.09375 0.59375 C 27.65625 0.59375 26.425781 0.296875 25.40625 -0.296875 C 24.382812 -0.898438 23.613281 -1.878906 23.09375 -3.234375 C 22.21875 -2.078125 21.085938 -1.148438 19.703125 -0.453125 C 18.328125 0.242188 16.695312 0.59375 14.8125 0.59375 C 11.175781 0.59375 8.238281 -0.820312 6 -3.65625 C 3.757812 -6.5 2.640625 -10.519531 2.640625 -15.71875 C 2.640625 -20.957031 3.757812 -24.96875 6 -27.75 C 8.238281 -30.53125 11.175781 -31.921875 14.8125 -31.921875 C 16.414062 -31.921875 17.867188 -31.660156 19.171875 -31.140625 C 20.472656 -30.617188 21.5625 -29.9375 22.4375 -29.09375 Z M 11.515625 -15.59375 C 11.515625 -12.957031 12.054688 -10.890625 13.140625 -9.390625 C 14.222656 -7.890625 15.703125 -7.140625 17.578125 -7.140625 C 18.617188 -7.140625 19.554688 -7.367188 20.390625 -7.828125 C 21.234375 -8.285156 21.914062 -8.835938 22.4375 -9.484375 L 22.4375 -21.84375 C 21.957031 -22.4375 21.285156 -22.972656 20.421875 -23.453125 C 19.566406 -23.941406 18.617188 -24.1875 17.578125 -24.1875 C 15.660156 -24.1875 14.171875 -23.4375 13.109375 -21.9375 C 12.046875 -20.4375 11.515625 -18.320312 11.515625 -15.59375 Z M 11.515625 -15.59375 "/></g></g></g><g fill="#949699" fill-opacity="1"><g transform="translate(288.183954, 294.449849)"><g><path d="M 31.140625 -31.375 L 31.140625 -9.65625 C 31.140625 -8.851562 31.257812 -8.191406 31.5 -7.671875 C 31.738281 -7.160156 32.160156 -6.90625 32.765625 -6.90625 C 33.242188 -6.90625 33.679688 -6.984375 34.078125 -7.140625 C 34.484375 -7.296875 34.882812 -7.515625 35.28125 -7.796875 L 35.578125 -0.78125 C 34.859375 -0.414062 33.925781 -0.0976562 32.78125 0.171875 C 31.644531 0.453125 30.4375 0.59375 29.15625 0.59375 C 27.632812 0.59375 26.34375 0.34375 25.28125 -0.15625 C 24.226562 -0.65625 23.484375 -1.679688 23.046875 -3.234375 C 21.203125 -0.710938 18.457031 0.546875 14.8125 0.546875 C 11.132812 0.546875 8.1875 -0.84375 5.96875 -3.625 C 3.75 -6.40625 2.640625 -10.394531 2.640625 -15.59375 C 2.640625 -20.59375 3.71875 -24.5625 5.875 -27.5 C 8.039062 -30.445312 11.125 -31.921875 15.125 -31.921875 C 16.40625 -31.921875 17.722656 -31.71875 19.078125 -31.3125 C 20.441406 -30.914062 21.539062 -30.195312 22.375 -29.15625 L 22.375 -31.375 Z M 22.375 -21.78125 C 21.894531 -22.382812 21.242188 -22.9375 20.421875 -23.4375 C 19.609375 -23.9375 18.679688 -24.1875 17.640625 -24.1875 C 15.679688 -24.1875 14.171875 -23.4375 13.109375 -21.9375 C 12.046875 -20.4375 11.515625 -18.320312 11.515625 -15.59375 C 11.515625 -12.957031 12.054688 -10.890625 13.140625 -9.390625 C 14.222656 -7.890625 15.722656 -7.140625 17.640625 -7.140625 C 18.640625 -7.140625 19.554688 -7.4375 20.390625 -8.03125 C 21.234375 -8.632812 21.894531 -9.257812 22.375 -9.90625 Z M 22.375 -21.78125 "/></g></g></g><g fill="#949699" fill-opacity="1"><g transform="translate(324.596741, 294.449849)"><g><path d="M 22.4375 -42.59375 L 31.140625 -42.59375 L 31.140625 -9.78125 C 31.140625 -8.976562 31.25 -8.296875 31.46875 -7.734375 C 31.6875 -7.179688 32.15625 -6.90625 32.875 -6.90625 C 33.675781 -6.90625 34.476562 -7.203125 35.28125 -7.796875 L 35.578125 -0.78125 C 34.941406 -0.414062 34.019531 -0.0976562 32.8125 0.171875 C 31.613281 0.453125 30.375 0.59375 29.09375 0.59375 C 27.65625 0.59375 26.425781 0.296875 25.40625 -0.296875 C 24.382812 -0.898438 23.613281 -1.878906 23.09375 -3.234375 C 22.21875 -2.078125 21.085938 -1.148438 19.703125 -0.453125 C 18.328125 0.242188 16.695312 0.59375 14.8125 0.59375 C 11.175781 0.59375 8.238281 -0.820312 6 -3.65625 C 3.757812 -6.5 2.640625 -10.519531 2.640625 -15.71875 C 2.640625 -20.957031 3.757812 -24.96875 6 -27.75 C 8.238281 -30.53125 11.175781 -31.921875 14.8125 -31.921875 C 16.414062 -31.921875 17.867188 -31.660156 19.171875 -31.140625 C 20.472656 -30.617188 21.5625 -29.9375 22.4375 -29.09375 Z M 11.515625 -15.59375 C 11.515625 -12.957031 12.054688 -10.890625 13.140625 -9.390625 C 14.222656 -7.890625 15.703125 -7.140625 17.578125 -7.140625 C 18.617188 -7.140625 19.554688 -7.367188 20.390625 -7.828125 C 21.234375 -8.285156 21.914062 -8.835938 22.4375 -9.484375 L 22.4375 -21.84375 C 21.957031 -22.4375 21.285156 -22.972656 20.421875 -23.453125 C 19.566406 -23.941406 18.617188 -24.1875 17.578125 -24.1875 C 15.660156 -24.1875 14.171875 -23.4375 13.109375 -21.9375 C 12.046875 -20.4375 11.515625 -18.320312 11.515625 -15.59375 Z M 11.515625 -15.59375 "/></g></g></g><g fill="#949699" fill-opacity="1"><g transform="translate(8.658753, 329.809987)"><g><path d="M 11.6875 -12.21875 L 10.484375 -9.859375 C 9.523438 -10.660156 8.535156 -11.0625 7.515625 -11.0625 C 6.421875 -11.0625 5.5625 -10.6875 4.9375 -9.9375 C 4.320312 -9.1875 4.015625 -8.132812 4.015625 -6.78125 C 4.015625 -5.34375 4.328125 -4.273438 4.953125 -3.578125 C 5.585938 -2.890625 6.390625 -2.546875 7.359375 -2.546875 C 8.179688 -2.546875 8.863281 -2.726562 9.40625 -3.09375 L 9.40625 -5.578125 L 6.640625 -5.578125 L 6.640625 -8.046875 L 12.125 -8.046875 L 12.125 -1.421875 C 11.757812 -1.128906 11.300781 -0.859375 10.75 -0.609375 C 10.195312 -0.359375 9.609375 -0.160156 8.984375 -0.015625 C 8.359375 0.128906 7.742188 0.203125 7.140625 0.203125 C 6.003906 0.203125 4.96875 -0.0703125 4.03125 -0.625 C 3.101562 -1.175781 2.363281 -1.972656 1.8125 -3.015625 C 1.257812 -4.066406 0.984375 -5.320312 0.984375 -6.78125 C 0.984375 -8.257812 1.257812 -9.519531 1.8125 -10.5625 C 2.363281 -11.613281 3.101562 -12.414062 4.03125 -12.96875 C 4.96875 -13.519531 6.003906 -13.796875 7.140625 -13.796875 C 8.984375 -13.796875 10.5 -13.269531 11.6875 -12.21875 Z M 11.6875 -12.21875 "/></g></g></g><g fill="#949699" fill-opacity="1"><g transform="translate(25.353485, 329.809987)"><g><path d="M 1.015625 -6.78125 C 1.015625 -8.15625 1.253906 -9.367188 1.734375 -10.421875 C 2.210938 -11.472656 2.894531 -12.296875 3.78125 -12.890625 C 4.675781 -13.492188 5.726562 -13.796875 6.9375 -13.796875 C 8.164062 -13.796875 9.222656 -13.492188 10.109375 -12.890625 C 11.003906 -12.296875 11.695312 -11.472656 12.1875 -10.421875 C 12.675781 -9.367188 12.921875 -8.15625 12.921875 -6.78125 C 12.921875 -5.414062 12.675781 -4.207031 12.1875 -3.15625 C 11.695312 -2.113281 11.003906 -1.289062 10.109375 -0.6875 C 9.222656 -0.09375 8.164062 0.203125 6.9375 0.203125 C 5.726562 0.203125 4.675781 -0.09375 3.78125 -0.6875 C 2.894531 -1.289062 2.210938 -2.113281 1.734375 -3.15625 C 1.253906 -4.207031 1.015625 -5.414062 1.015625 -6.78125 Z M 3.921875 -6.78125 C 3.921875 -5.34375 4.195312 -4.28125 4.75 -3.59375 C 5.3125 -2.914062 6.039062 -2.578125 6.9375 -2.578125 C 7.84375 -2.578125 8.578125 -2.914062 9.140625 -3.59375 C 9.710938 -4.28125 10 -5.34375 10 -6.78125 C 10 -8.25 9.710938 -9.320312 9.140625 -10 C 8.578125 -10.675781 7.84375 -11.015625 6.9375 -11.015625 C 6.039062 -11.015625 5.3125 -10.675781 4.75 -10 C 4.195312 -9.320312 3.921875 -8.25 3.921875 -6.78125 Z M 3.921875 -6.78125 "/></g></g></g><g fill="#949699" fill-opacity="1"><g transform="translate(42.627997, 329.809987)"><g><path d="M 1.71875 0 L 1.71875 -13.59375 L 6.921875 -13.59375 C 8.210938 -13.59375 9.210938 -13.300781 9.921875 -12.71875 C 10.640625 -12.132812 11 -11.210938 11 -9.953125 C 11 -9.265625 10.851562 -8.675781 10.5625 -8.1875 C 10.269531 -7.695312 9.867188 -7.328125 9.359375 -7.078125 C 10.171875 -6.890625 10.800781 -6.519531 11.25 -5.96875 C 11.695312 -5.425781 11.921875 -4.703125 11.921875 -3.796875 C 11.921875 -2.597656 11.554688 -1.664062 10.828125 -1 C 10.097656 -0.332031 9.054688 0 7.703125 0 Z M 4.6875 -5.578125 L 4.6875 -2.5 L 7.265625 -2.5 C 7.847656 -2.5 8.257812 -2.628906 8.5 -2.890625 C 8.738281 -3.160156 8.859375 -3.523438 8.859375 -3.984375 C 8.859375 -4.484375 8.71875 -4.875 8.4375 -5.15625 C 8.15625 -5.4375 7.707031 -5.578125 7.09375 -5.578125 Z M 4.6875 -11.09375 L 4.6875 -8.234375 L 6.453125 -8.234375 C 7.003906 -8.234375 7.398438 -8.363281 7.640625 -8.625 C 7.890625 -8.882812 8.015625 -9.242188 8.015625 -9.703125 C 8.015625 -10.171875 7.894531 -10.519531 7.65625 -10.75 C 7.425781 -10.976562 7.039062 -11.09375 6.5 -11.09375 Z M 4.6875 -11.09375 "/></g></g></g><g fill="#949699" fill-opacity="1"><g transform="translate(58.802937, 329.809987)"><g><path d="M 1.71875 0 L 1.71875 -13.59375 L 4.6875 -13.59375 L 4.6875 0 Z M 1.71875 0 "/></g></g></g><g fill="#949699" fill-opacity="1"><g transform="translate(68.56041, 329.809987)"><g><path d="M 11.078125 0 L 1.71875 0 L 1.71875 -13.59375 L 11.078125 -13.59375 L 11.078125 -11 L 4.5625 -11 L 4.5625 -8.21875 L 9.84375 -8.21875 L 9.84375 -5.703125 L 4.5625 -5.703125 L 4.5625 -2.578125 L 11.078125 -2.578125 Z M 11.078125 0 "/></g></g></g><g fill="#949699" fill-opacity="1"><g transform="translate(84.035625, 329.809987)"><g><path d="M 1.71875 0 L 1.71875 -13.59375 L 7.5625 -13.59375 C 8.414062 -13.59375 9.148438 -13.398438 9.765625 -13.015625 C 10.390625 -12.640625 10.867188 -12.117188 11.203125 -11.453125 C 11.546875 -10.785156 11.71875 -10.007812 11.71875 -9.125 C 11.71875 -8.070312 11.425781 -7.175781 10.84375 -6.4375 C 10.269531 -5.707031 9.535156 -5.234375 8.640625 -5.015625 C 9.003906 -4.617188 9.359375 -4.210938 9.703125 -3.796875 C 10.054688 -3.390625 10.414062 -3.046875 10.78125 -2.765625 C 11.15625 -2.492188 11.53125 -2.359375 11.90625 -2.359375 C 12.0625 -2.359375 12.242188 -2.382812 12.453125 -2.4375 C 12.671875 -2.488281 12.867188 -2.5625 13.046875 -2.65625 L 13.34375 -0.3125 C 13.101562 -0.1875 12.78125 -0.0703125 12.375 0.03125 C 11.96875 0.144531 11.570312 0.203125 11.1875 0.203125 C 10.632812 0.203125 10.113281 0.0625 9.625 -0.21875 C 9.144531 -0.5 8.691406 -0.851562 8.265625 -1.28125 C 7.847656 -1.71875 7.453125 -2.175781 7.078125 -2.65625 C 6.703125 -3.132812 6.351562 -3.570312 6.03125 -3.96875 C 5.707031 -4.375 5.390625 -4.6875 5.078125 -4.90625 L 4.6875 -4.90625 L 4.6875 0 Z M 4.6875 -11.015625 L 4.6875 -7.15625 L 6.8125 -7.15625 C 7.394531 -7.15625 7.859375 -7.328125 8.203125 -7.671875 C 8.546875 -8.023438 8.71875 -8.492188 8.71875 -9.078125 C 8.71875 -9.703125 8.546875 -10.179688 8.203125 -10.515625 C 7.859375 -10.847656 7.394531 -11.015625 6.8125 -11.015625 Z M 4.6875 -11.015625 "/></g></g></g><g fill="#949699" fill-opacity="1"><g transform="translate(100.870306, 329.809987)"><g><path d="M 10.40625 0 L 4.65625 -8.625 L 4.65625 0 L 1.71875 0 L 1.71875 -13.59375 L 4.28125 -13.59375 L 10.015625 -4.953125 L 10.015625 -13.59375 L 13 -13.59375 L 13 0 Z M 10.40625 0 "/></g></g></g><g fill="#949699" fill-opacity="1"><g transform="translate(118.944497, 329.809987)"><g><path d="M 1.015625 -6.78125 C 1.015625 -8.15625 1.253906 -9.367188 1.734375 -10.421875 C 2.210938 -11.472656 2.894531 -12.296875 3.78125 -12.890625 C 4.675781 -13.492188 5.726562 -13.796875 6.9375 -13.796875 C 8.164062 -13.796875 9.222656 -13.492188 10.109375 -12.890625 C 11.003906 -12.296875 11.695312 -11.472656 12.1875 -10.421875 C 12.675781 -9.367188 12.921875 -8.15625 12.921875 -6.78125 C 12.921875 -5.414062 12.675781 -4.207031 12.1875 -3.15625 C 11.695312 -2.113281 11.003906 -1.289062 10.109375 -0.6875 C 9.222656 -0.09375 8.164062 0.203125 6.9375 0.203125 C 5.726562 0.203125 4.675781 -0.09375 3.78125 -0.6875 C 2.894531 -1.289062 2.210938 -2.113281 1.734375 -3.15625 C 1.253906 -4.207031 1.015625 -5.414062 1.015625 -6.78125 Z M 3.921875 -6.78125 C 3.921875 -5.34375 4.195312 -4.28125 4.75 -3.59375 C 5.3125 -2.914062 6.039062 -2.578125 6.9375 -2.578125 C 7.84375 -2.578125 8.578125 -2.914062 9.140625 -3.59375 C 9.710938 -4.28125 10 -5.34375 10 -6.78125 C 10 -8.25 9.710938 -9.320312 9.140625 -10 C 8.578125 -10.675781 7.84375 -11.015625 6.9375 -11.015625 C 6.039062 -11.015625 5.3125 -10.675781 4.75 -10 C 4.195312 -9.320312 3.921875 -8.25 3.921875 -6.78125 Z M 3.921875 -6.78125 "/></g></g></g><g fill="#949699" fill-opacity="1"><g transform="translate(136.219009, 329.809987)"><g/></g></g><g fill="#949699" fill-opacity="1"><g transform="translate(143.877314, 329.809987)"><g><path d="M 1.71875 0 L 1.71875 -13.59375 L 6.984375 -13.59375 C 8.128906 -13.59375 9.148438 -13.328125 10.046875 -12.796875 C 10.953125 -12.273438 11.660156 -11.507812 12.171875 -10.5 C 12.691406 -9.488281 12.953125 -8.25 12.953125 -6.78125 C 12.953125 -5.320312 12.691406 -4.085938 12.171875 -3.078125 C 11.660156 -2.066406 10.953125 -1.300781 10.046875 -0.78125 C 9.148438 -0.257812 8.128906 0 6.984375 0 Z M 4.6875 -2.578125 L 6.59375 -2.578125 C 7.632812 -2.578125 8.453125 -2.941406 9.046875 -3.671875 C 9.640625 -4.398438 9.9375 -5.4375 9.9375 -6.78125 C 9.9375 -8.15625 9.640625 -9.203125 9.046875 -9.921875 C 8.453125 -10.648438 7.632812 -11.015625 6.59375 -11.015625 L 4.6875 -11.015625 Z M 4.6875 -2.578125 "/></g></g></g><g fill="#949699" fill-opacity="1"><g transform="translate(161.211793, 329.809987)"><g><path d="M 11.078125 0 L 1.71875 0 L 1.71875 -13.59375 L 11.078125 -13.59375 L 11.078125 -11 L 4.5625 -11 L 4.5625 -8.21875 L 9.84375 -8.21875 L 9.84375 -5.703125 L 4.5625 -5.703125 L 4.5625 -2.578125 L 11.078125 -2.578125 Z M 11.078125 0 "/></g></g></g><g fill="#949699" fill-opacity="1"><g transform="translate(176.687008, 329.809987)"><g/></g></g><g fill="#949699" fill-opacity="1"><g transform="translate(184.345313, 329.809987)"><g><path d="M 10.421875 0 L 1.71875 0 L 1.71875 -13.59375 L 4.6875 -13.59375 L 4.6875 -2.578125 L 10.421875 -2.578125 Z M 10.421875 0 "/></g></g></g><g fill="#949699" fill-opacity="1"><g transform="translate(198.461062, 329.809987)"><g><path d="M 0.21875 0 L 4.65625 -13.59375 L 8.09375 -13.59375 L 12.4375 0 L 9.5 0 L 8.734375 -2.65625 L 3.9375 -2.65625 L 3.15625 0 Z M 6.375 -10.65625 L 4.6875 -4.84375 L 8.015625 -4.84375 Z M 6.375 -10.65625 "/></g></g></g><g fill="#949699" fill-opacity="1"><g transform="translate(214.536027, 329.809987)"><g/></g></g><g fill="#949699" fill-opacity="1"><g transform="translate(222.194344, 329.809987)"><g><path d="M 1.71875 0 L 1.71875 -13.59375 L 7.5625 -13.59375 C 8.414062 -13.59375 9.148438 -13.398438 9.765625 -13.015625 C 10.390625 -12.640625 10.867188 -12.117188 11.203125 -11.453125 C 11.546875 -10.785156 11.71875 -10.007812 11.71875 -9.125 C 11.71875 -8.070312 11.425781 -7.175781 10.84375 -6.4375 C 10.269531 -5.707031 9.535156 -5.234375 8.640625 -5.015625 C 9.003906 -4.617188 9.359375 -4.210938 9.703125 -3.796875 C 10.054688 -3.390625 10.414062 -3.046875 10.78125 -2.765625 C 11.15625 -2.492188 11.53125 -2.359375 11.90625 -2.359375 C 12.0625 -2.359375 12.242188 -2.382812 12.453125 -2.4375 C 12.671875 -2.488281 12.867188 -2.5625 13.046875 -2.65625 L 13.34375 -0.3125 C 13.101562 -0.1875 12.78125 -0.0703125 12.375 0.03125 C 11.96875 0.144531 11.570312 0.203125 11.1875 0.203125 C 10.632812 0.203125 10.113281 0.0625 9.625 -0.21875 C 9.144531 -0.5 8.691406 -0.851562 8.265625 -1.28125 C 7.847656 -1.71875 7.453125 -2.175781 7.078125 -2.65625 C 6.703125 -3.132812 6.351562 -3.570312 6.03125 -3.96875 C 5.707031 -4.375 5.390625 -4.6875 5.078125 -4.90625 L 4.6875 -4.90625 L 4.6875 0 Z M 4.6875 -11.015625 L 4.6875 -7.15625 L 6.8125 -7.15625 C 7.394531 -7.15625 7.859375 -7.328125 8.203125 -7.671875 C 8.546875 -8.023438 8.71875 -8.492188 8.71875 -9.078125 C 8.71875 -9.703125 8.546875 -10.179688 8.203125 -10.515625 C 7.859375 -10.847656 7.394531 -11.015625 6.8125 -11.015625 Z M 4.6875 -11.015625 "/></g></g></g><g fill="#949699" fill-opacity="1"><g transform="translate(239.029038, 329.809987)"><g><path d="M 11.078125 0 L 1.71875 0 L 1.71875 -13.59375 L 11.078125 -13.59375 L 11.078125 -11 L 4.5625 -11 L 4.5625 -8.21875 L 9.84375 -8.21875 L 9.84375 -5.703125 L 4.5625 -5.703125 L 4.5625 -2.578125 L 11.078125 -2.578125 Z M 11.078125 0 "/></g></g></g><g fill="#949699" fill-opacity="1"><g transform="translate(254.504241, 329.809987)"><g><path d="M 1.71875 0 L 1.71875 -13.59375 L 7.515625 -13.59375 C 8.296875 -13.59375 9.007812 -13.414062 9.65625 -13.0625 C 10.300781 -12.71875 10.820312 -12.175781 11.21875 -11.4375 C 11.613281 -10.707031 11.8125 -9.769531 11.8125 -8.625 C 11.8125 -7.59375 11.613281 -6.707031 11.21875 -5.96875 C 10.820312 -5.238281 10.300781 -4.679688 9.65625 -4.296875 C 9.007812 -3.910156 8.296875 -3.71875 7.515625 -3.71875 L 4.6875 -3.71875 L 4.6875 0 Z M 6.875 -11.015625 L 4.6875 -11.015625 L 4.6875 -6.296875 L 6.875 -6.296875 C 7.425781 -6.296875 7.882812 -6.503906 8.25 -6.921875 C 8.613281 -7.347656 8.796875 -7.921875 8.796875 -8.640625 C 8.796875 -9.410156 8.613281 -10 8.25 -10.40625 C 7.882812 -10.8125 7.425781 -11.015625 6.875 -11.015625 Z M 6.875 -11.015625 "/></g></g></g><g fill="#949699" fill-opacity="1"><g transform="translate(270.359297, 329.809987)"><g><path d="M 4.546875 -13.59375 L 4.546875 -5.703125 C 4.546875 -4.648438 4.738281 -3.851562 5.125 -3.3125 C 5.507812 -2.78125 6.117188 -2.515625 6.953125 -2.515625 C 7.828125 -2.515625 8.457031 -2.796875 8.84375 -3.359375 C 9.226562 -3.921875 9.421875 -4.707031 9.421875 -5.71875 L 9.421875 -13.59375 L 12.375 -13.59375 L 12.375 -5.5 C 12.375 -4.4375 12.179688 -3.46875 11.796875 -2.59375 C 11.421875 -1.726562 10.835938 -1.039062 10.046875 -0.53125 C 9.253906 -0.03125 8.222656 0.21875 6.953125 0.21875 C 5.710938 0.21875 4.695312 -0.015625 3.90625 -0.484375 C 3.113281 -0.960938 2.523438 -1.628906 2.140625 -2.484375 C 1.765625 -3.347656 1.578125 -4.351562 1.578125 -5.5 L 1.578125 -13.59375 Z M 4.546875 -13.59375 "/></g></g></g><g fill="#949699" fill-opacity="1"><g transform="translate(287.693799, 329.809987)"><g><path d="M 1.71875 0 L 1.71875 -13.59375 L 6.921875 -13.59375 C 8.210938 -13.59375 9.210938 -13.300781 9.921875 -12.71875 C 10.640625 -12.132812 11 -11.210938 11 -9.953125 C 11 -9.265625 10.851562 -8.675781 10.5625 -8.1875 C 10.269531 -7.695312 9.867188 -7.328125 9.359375 -7.078125 C 10.171875 -6.890625 10.800781 -6.519531 11.25 -5.96875 C 11.695312 -5.425781 11.921875 -4.703125 11.921875 -3.796875 C 11.921875 -2.597656 11.554688 -1.664062 10.828125 -1 C 10.097656 -0.332031 9.054688 0 7.703125 0 Z M 4.6875 -5.578125 L 4.6875 -2.5 L 7.265625 -2.5 C 7.847656 -2.5 8.257812 -2.628906 8.5 -2.890625 C 8.738281 -3.160156 8.859375 -3.523438 8.859375 -3.984375 C 8.859375 -4.484375 8.71875 -4.875 8.4375 -5.15625 C 8.15625 -5.4375 7.707031 -5.578125 7.09375 -5.578125 Z M 4.6875 -11.09375 L 4.6875 -8.234375 L 6.453125 -8.234375 C 7.003906 -8.234375 7.398438 -8.363281 7.640625 -8.625 C 7.890625 -8.882812 8.015625 -9.242188 8.015625 -9.703125 C 8.015625 -10.171875 7.894531 -10.519531 7.65625 -10.75 C 7.425781 -10.976562 7.039062 -11.09375 6.5 -11.09375 Z M 4.6875 -11.09375 "/></g></g></g><g fill="#949699" fill-opacity="1"><g transform="translate(303.86874, 329.809987)"><g><path d="M 10.421875 0 L 1.71875 0 L 1.71875 -13.59375 L 4.6875 -13.59375 L 4.6875 -2.578125 L 10.421875 -2.578125 Z M 10.421875 0 "/></g></g></g><g fill="#949699" fill-opacity="1"><g transform="translate(317.984477, 329.809987)"><g><path d="M 1.71875 0 L 1.71875 -13.59375 L 4.6875 -13.59375 L 4.6875 0 Z M 1.71875 0 "/></g></g></g><g fill="#949699" fill-opacity="1"><g transform="translate(327.741938, 329.809987)"><g><path d="M 10.59375 -4.203125 L 11.765625 -1.765625 C 11.242188 -1.253906 10.5625 -0.796875 9.71875 -0.390625 C 8.875 0.00390625 7.972656 0.203125 7.015625 0.203125 C 5.878906 0.203125 4.859375 -0.0703125 3.953125 -0.625 C 3.046875 -1.175781 2.328125 -1.972656 1.796875 -3.015625 C 1.273438 -4.066406 1.015625 -5.320312 1.015625 -6.78125 C 1.015625 -8.257812 1.273438 -9.519531 1.796875 -10.5625 C 2.328125 -11.613281 3.046875 -12.414062 3.953125 -12.96875 C 4.859375 -13.519531 5.878906 -13.796875 7.015625 -13.796875 C 8.515625 -13.796875 9.671875 -13.398438 10.484375 -12.609375 C 11.296875 -11.828125 11.710938 -10.644531 11.734375 -9.0625 L 9.078125 -8.546875 C 9.066406 -9.410156 8.875 -10.046875 8.5 -10.453125 C 8.132812 -10.859375 7.601562 -11.0625 6.90625 -11.0625 C 6.03125 -11.0625 5.332031 -10.6875 4.8125 -9.9375 C 4.300781 -9.1875 4.046875 -8.132812 4.046875 -6.78125 C 4.046875 -5.363281 4.332031 -4.300781 4.90625 -3.59375 C 5.476562 -2.894531 6.269531 -2.546875 7.28125 -2.546875 C 7.90625 -2.546875 8.507812 -2.71875 9.09375 -3.0625 C 9.6875 -3.414062 10.1875 -3.796875 10.59375 -4.203125 Z M 10.59375 -4.203125 "/></g></g></g><g fill="#949699" fill-opacity="1"><g transform="translate(343.716974, 329.809987)"><g><path d="M 0.21875 0 L 4.65625 -13.59375 L 8.09375 -13.59375 L 12.4375 0 L 9.5 0 L 8.734375 -2.65625 L 3.9375 -2.65625 L 3.15625 0 Z M 6.375 -10.65625 L 4.6875 -4.84375 L 8.015625 -4.84375 Z M 6.375 -10.65625 "/></g></g></g></svg>